HIERARCHY
ROOT Hips
{
  OFFSET 265.287 66.7526 -254.649
  CHANNELS 6 Xposition Yposition Zposition Zrotation Xrotation Yrotation
  JOINT LeftUpLeg
  {
    OFFSET 8.64259 1.95398 -2.38835
    CHANNELS 3 Zrotation Xrotation Yrotation
    JOINT LeftLeg
    {
      OFFSET 43.7702 0 0
      CHANNELS 3 Zrotation Xrotation Yrotation
      JOINT LeftFoot
      {
        OFFSET 40.6238 0 0
        CHANNELS 3 Zrotation Xrotation Yrotation
        JOINT LeftToeBase
        {
          OFFSET 12.7242 0 0
          CHANNELS 3 Zrotation Xrotation Yrotation
          End Site
          {
            OFFSET 0 0 0
          }
        }
      }
    }
  }
  JOINT RightUpLeg
  {
    OFFSET -8.2249 1.95398 -2.59336
    CHANNELS 3 Zrotation Xrotation Yrotation
    JOINT RightLeg
    {
      OFFSET 43.5653 0 0
      CHANNELS 3 Zrotation Xrotation Yrotation
      JOINT RightFoot
      {
        OFFSET 40.6238 0 0
        CHANNELS 3 Zrotation Xrotation Yrotation
        JOINT RightToeBase
        {
          OFFSET 12.7242 0 0
          CHANNELS 3 Zrotation Xrotation Yrotation
          End Site
          {
            OFFSET 0 0 0
          }
        }
      }
    }
  }
  JOINT Spine
  {
    OFFSET 0.165834 0.87714 6.61349
    CHANNELS 3 Zrotation Xrotation Yrotation
    JOINT Spine1
    {
      OFFSET 7.38963 1.71661e-005 0
      CHANNELS 3 Zrotation Xrotation Yrotation
      JOINT Spine2
      {
        OFFSET 11.9445 1.14441e-005 0
        CHANNELS 3 Zrotation Xrotation Yrotation
        JOINT Spine3
        {
          OFFSET 14.7254 4.19617e-005 0
          CHANNELS 3 Zrotation Xrotation Yrotation
          JOINT Spine4
          {
            OFFSET 10.9679 0 0
            CHANNELS 3 Zrotation Xrotation Yrotation
            JOINT RightShoulder
            {
              OFFSET 2.46616 -1.6653 3.69651
              CHANNELS 3 Zrotation Xrotation Yrotation
              JOINT RightArm
              {
                OFFSET 13.0012 0 0
                CHANNELS 3 Zrotation Xrotation Yrotation
                JOINT RightForeArm
                {
                  OFFSET 28.7848 1.52588e-005 0
                  CHANNELS 3 Zrotation Xrotation Yrotation
                  JOINT RightHand
                  {
                    OFFSET 26.5688 1.52588e-005 0
                    CHANNELS 3 Zrotation Xrotation Yrotation
                    End Site
                    {
                      OFFSET 0 0 0
                    }
                  }
                }
              }
            }
            JOINT LeftShoulder
            {
              OFFSET 2.38034 -1.29275 -3.7523
              CHANNELS 3 Zrotation Xrotation Yrotation
              JOINT LeftArm
              {
                OFFSET 16.3182 6.10351e-005 0
                CHANNELS 3 Zrotation Xrotation Yrotation
                JOINT LeftForeArm
                {
                  OFFSET 27.0901 0 0
                  CHANNELS 3 Zrotation Xrotation Yrotation
                  JOINT LeftHand
                  {
                    OFFSET 24.5451 1.52588e-005 0
                    CHANNELS 3 Zrotation Xrotation Yrotation
                    End Site
                    {
                      OFFSET 0 0 0
                    }
                  }
                }
              }
            }
            JOINT Neck
            {
              OFFSET 5.0226 -0.0266342 0
              CHANNELS 3 Zrotation Xrotation Yrotation
              JOINT Head
              {
                OFFSET 6.69364 2.86102e-005 0
                CHANNELS 3 Zrotation Xrotation Yrotation
                End Site
                {
                  OFFSET 0 0 0
                }
              }
            }
          }
        }
      }
    }
  }
}
MOTION
Frames:	6
Frame Time:	0.0416667
-100.716 83.0688 41.2993 71.2741 -88.5427 75.3519 -169.947 57.4669 96.2797 -98.7718 20.5045 0.625002 58.67 2.87031 18.9858 38.1012 -2.75499 -5.02315 166.108 35.9255 71.5608 -57.3374 -16.6573 2.21488 51.5924 5.98596 12.7411 62.6108 -5.3621 -2.44318 0.281786 11.951 -91.9737 2.95203 -0.215071 -3.85959 -8.7246 -0.384595 -3.84642 -31.2156 0.954001 -3.74617 -11.203 0.954004 -3.74618 98.1445 -50.1172 -88.4228 -3.05404 14.249 -43.2262 0.354012 -3.01187 -8.1719 -15.7074 -0.557254 -1.09139 -87.2538 -47.1594 82.1276 -29.2434 9.81732 19.0162 -2.88387 27.0634 -0.00483959 5.45122 0.106734 -1.48571 8.81888 -0.988144 -13.2072 14.0457 5.88383 25.0209 
-105.616 84.9376 40.9108 26.0708 -86.8233 30.7794 -157.728 51.5534 78.3885 -81.1787 26.1814 -2.94269 55.0423 0.284135 17.4389 41.2671 -3.89934 -9.22224 161.468 37.5643 75.4829 -55.1853 -21.0111 5.76916 49.3378 7.16698 10.3717 61.1167 -4.76124 -0.565775 0.469775 11.8845 -92.1318 3.08813 0.0957946 -4.16725 -8.58949 -0.0875508 -4.16745 -31.0752 1.34282 -3.9465 -11.0626 1.34283 -3.94651 96.6935 -46.7178 -91.0432 2.04498 11.1285 -48.9562 1.15755 3.79994 -12.9807 -14.2373 -0.307429 -2.78008 -88.6286 -48.3707 80.2322 -32.5698 14.6755 11.7173 -4.07587 33.43 -0.537981 4.84097 -0.0268307 -3.34621 9.23976 -1.40156 -14.4746 14.0444 5.92414 25.6822 
-110.023 86.1736 40.8916 -20.9715 -84.4455 -16.8256 -158.008 43.913 72.8458 -58.0075 24.0594 -8.49163 52.0581 -2.21295 12.9359 41.1441 -3.8599 -9.75997 159.627 42.2628 77.7314 -55.7607 -20.5029 5.81842 40.0727 10.829 22.4019 50.1369 -2.64422 9.12864 0.781327 11.7109 -91.9337 3.44941 0.790486 -3.77998 -8.22691 0.623484 -3.81105 -30.7271 1.88936 -3.36848 -10.7145 1.88937 -3.36848 96.6149 -44.662 -91.4159 0.668154 4.87772 -53.6408 2.95931 0.809497 -17.5382 -9.85224 -0.0251622 -5.06235 -89.2011 -49.2409 79.535 -34.0431 19.2903 8.04791 -1.17984 31.6833 -6.43149 7.46199 0.108141 -2.12103 6.67109 -1.11115 -11.9566 16.8449 5.50593 22.8756 
-114.568 87.0284 41.847 -52.0946 -82.2189 -45.3509 -165.13 37.9979 75.3702 -43.688 20.7861 -8.68745 47.4995 -4.71028 11.7025 40.8475 -3.782 -7.55827 163.18 41.7686 79.9474 -56.0357 -18.3809 4.16827 36.8335 11.5899 23.8337 49.6222 -2.95587 2.70075 1.16743 11.6522 -91.9191 3.57893 1.5656 -3.7519 -8.09666 1.39907 -3.81706 -30.6073 2.62031 -3.10886 -10.5946 2.62032 -3.10887 96.1428 -43.5598 -92.3454 4.54404 0.164629 -55.9509 -5.07389 -15.9269 -27.3923 -2.88087 -3.5748e-005 -6.60373 -89.3843 -49.7501 79.3625 -33.9437 21.4687 4.69447 -0.334866 25.8772 -9.23559 11.6366 0.226561 -1.77441 3.2025 -0.258601 -9.65263 18.768 5.67858 21.4832 
-119.508 87.0077 42.7762 -76.1006 -81.578 -65.0386 -171.132 32.5823 78.8432 -43.947 22.3681 -4.78858 58.3803 2.06024 21.0302 21.6468 4.36524 -11.1512 169.622 37.8574 80.9309 -55.3083 -11.853 1.66967 43.0872 9.33919 15.6209 49.8804 -3.37708 -4.52804 1.28479 11.6708 -91.9728 3.54521 1.77911 -3.85573 -8.13046 1.60782 -3.93017 -30.6424 2.85514 -3.1438 -10.6298 2.85514 -3.1438 95.249 -44.5014 -93.7074 8.03706 -6.27931 -55.1295 -17.3702 -24.7138 -41.5183 4.46623 -0.165221 -8.18943 -89.2499 -50.7697 79.7678 -31.9254 21.0253 0.856453 -1.3817 24.784 -6.93973 16.1592 0.359834 -1.60986 2.73251 1.2173 -9.41397 17.419 6.63279 20.8075 
-125.082 85.5697 43.1377 -80.3902 -82.1624 -65.8188 -174.728 31.9778 82.3765 -49.5038 21.5439 -0.585903 68.9028 11.9393 31.4877 22.8361 3.77653 -10.7307 173.953 34.2203 81.7643 -49.2457 -6.40466 -0.161291 48.6334 6.98055 15.6486 51.7432 -3.62193 -3.43071 0.992665 11.4132 -91.8104 4.05408 1.25291 -3.55385 -7.62123 1.09539 -3.60546 -30.1315 2.26263 -3.01378 -10.1188 2.26263 -3.01378 95.2006 -48.2216 -93.2472 5.97259 -15.0601 -54.3469 -19.3745 -20.1896 -49.9362 4.07978 -0.170824 -8.55992 -88.9683 -51.5893 80.3438 -28.3051 19.7034 -1.80073 -2.32094 25.3458 -4.56961 17.764 0.684641 0.00777555 6.06513 2.771 -13.6515 12.7041 8.62789 22.6954 
